<svg width="146" height="146" viewBox="0 0 146 146" fill="none" xmlns="http://www.w3.org/2000/svg">
<path opacity="0.2" d="M143.81 90.6604C134.06 129.768 94.4486 153.566 55.3363 143.816C16.2426 134.066 -7.55771 94.4541 2.19464 55.3491C11.9401 16.237 51.5495 -7.56555 90.6503 2.18452C129.76 11.9346 153.56 51.5508 143.81 90.6604Z" fill="#F7931A"/>
<path fill-rule="evenodd" clip-rule="evenodd" d="M92.5921 58.6291C91.8373 52.0095 86.0743 49.8863 78.836 49.3793L78.6749 40.1812L73.0747 40.2799L73.2313 49.2356C71.7612 49.2611 70.2569 49.3164 68.7626 49.3724L68.6065 40.3573L63.0102 40.4548L63.1691 49.6504C61.9573 49.6963 60.7669 49.7396 59.6062 49.7606L59.605 49.7321L51.8829 49.8643L51.9888 55.844C51.9888 55.844 56.1219 55.693 56.0545 55.7704C58.3225 55.7314 59.0851 57.0349 59.3181 58.1675L59.5012 68.6464C59.6578 68.6441 59.8622 68.6475 60.0941 68.675L59.504 68.6857L59.7572 83.3654C59.6702 84.0808 59.2704 85.2264 57.6863 85.2567C57.7587 85.319 53.6162 85.3269 53.6162 85.3269L52.6209 92.0339L59.9083 91.9064C60.7315 91.8929 61.5463 91.8873 62.3526 91.8823C62.8749 91.8789 63.3932 91.8755 63.9075 91.8699L64.0726 101.174L69.665 101.077L69.5061 91.8722C71.0408 91.8778 72.5272 91.8638 73.9776 91.8374L74.1354 100.999L79.7339 100.901L79.5739 91.615C88.9774 90.9103 95.5255 88.4238 96.1865 79.5722C96.7227 72.4435 93.3209 69.3253 87.9549 68.1343C91.1714 66.4216 93.1513 63.4729 92.5921 58.6291ZM85.1045 78.658C85.2174 85.0394 75.1894 85.0736 70.605 85.0893C70.1945 85.0905 69.8273 85.0916 69.5156 85.0978L69.3017 72.7714C69.683 72.7653 70.1462 72.7462 70.6707 72.7243C75.3663 72.5317 84.9871 72.1369 85.1045 78.658ZM70.1243 67.1246C73.9523 67.1207 82.2951 67.1117 82.1957 61.3138C82.093 55.3832 74.0725 55.7365 70.1552 55.909C69.715 55.9284 69.3264 55.9455 69.0069 55.9511L69.2017 67.1302C69.4651 67.1252 69.7762 67.1252 70.1243 67.1246Z" fill="#F7931A"/>
</svg>
