<svg width="151" height="151" viewBox="0 0 151 151" fill="none" xmlns="http://www.w3.org/2000/svg">
<g clip-path="url(#clip0_196_11)">
<path opacity="0.1" d="M75.5 151C117.197 151 151 117.197 151 75.5C151 33.8025 117.197 0 75.5 0C33.8025 0 0 33.8025 0 75.5C0 117.197 33.8025 151 75.5 151Z" fill="#3AB83A"/>
<mask id="mask0_196_11" style="mask-type:luminance" maskUnits="userSpaceOnUse" x="0" y="0" width="151" height="151">
<path d="M75.5 151C117.197 151 151 117.197 151 75.5C151 33.8025 117.197 0 75.5 0C33.8025 0 0 33.8025 0 75.5C0 117.197 33.8025 151 75.5 151Z" fill="white"/>
</mask>
<g mask="url(#mask0_196_11)">
<path fill-rule="evenodd" clip-rule="evenodd" d="M58.0769 71.5856L78.4875 58.3185L98.7308 71.6681L78.398 34.8461L58.0769 71.5856ZM58.8557 75.4175L78.5095 62.4658L97.9078 75.3217L78.5206 88.2868L58.8557 75.4175ZM58.0769 79.1257C65.2401 83.823 72.7146 88.7398 78.4875 92.5444L98.7308 79.1257C91.4009 92.5717 85.2947 103.765 78.4875 116.154L74.3135 108.589C68.7056 98.4235 62.9223 87.9412 58.0769 79.1257Z" fill="#3AB83A"/>
<path fill-rule="evenodd" clip-rule="evenodd" d="M78.4038 34.8461L78.4799 58.3185L98.7307 71.6681L78.4038 34.8461ZM78.4991 62.4658L98.0257 75.3217L78.5089 88.2868L78.4991 62.4658ZM78.4799 92.5444L98.7307 79.1257C92.4497 92.5717 78.4799 116.154 78.4799 116.154V92.5444Z" fill="#0B8311"/>
</g>
</g>
<defs>
<clipPath id="clip0_196_11">
<rect width="151" height="151" fill="white"/>
</clipPath>
</defs>
</svg>
