<svg width="150" height="147" viewBox="0 0 150 147" fill="none" xmlns="http://www.w3.org/2000/svg">
<ellipse cx="75" cy="73.5" rx="75" ry="73.5" fill="#E5BAFF"/>
<path fill-rule="evenodd" clip-rule="evenodd" d="M92.4141 26.519C99.2071 24.4582 106.29 28.7428 107.561 35.6815L108.878 42.8749C113.62 44.4199 117.043 48.8504 117.043 54.0748V64.9324C119.472 67.0902 121 70.2262 121 73.7165V81.5732C121 85.0636 119.472 88.1996 117.043 90.3574V101.215C117.043 107.724 111.729 113 105.174 113H41.8696C35.3142 113 30 107.724 30 101.215V54.0748C30 48.2337 34.2799 43.3852 39.896 42.4519L92.4141 26.519ZM109.13 85.5016C111.316 85.5016 113.087 83.7429 113.087 81.5732V73.7165C113.087 71.5469 111.316 69.7882 109.13 69.7882H97.2609C95.0757 69.7882 93.3043 71.5469 93.3043 73.7165V81.5732C93.3043 83.7429 95.0757 85.5016 97.2609 85.5016H109.13ZM109.13 93.3583V101.215C109.13 103.385 107.359 105.143 105.174 105.143H41.8696C39.6845 105.143 37.913 103.385 37.913 101.215V54.0748C37.913 51.9053 39.6845 50.1465 41.8696 50.1465H105.174C107.35 50.1465 109.115 51.8905 109.13 54.0474V61.9315H97.2609C90.7053 61.9315 85.3913 67.2077 85.3913 73.7165V81.5732C85.3913 88.0821 90.7053 93.3583 97.2609 93.3583H109.13ZM100.012 36.8178L100.985 42.2898H65.6087L94.9788 33.7378C97.247 33.0623 99.6008 34.5026 100.012 36.8178Z" fill="#62009E" fill-opacity="0.49"/>
<path d="M103 81C105.209 81 107 79.433 107 77.5C107 75.567 105.209 74 103 74C100.791 74 99 75.567 99 77.5C99 79.433 100.791 81 103 81Z" fill="#A55FD0"/>
</svg>
