<svg width="172" height="172" viewBox="0 0 172 172" fill="none" xmlns="http://www.w3.org/2000/svg">
<circle cx="86" cy="86" r="86" fill="black"/>
<path fill-rule="evenodd" clip-rule="evenodd" d="M127.25 36C134.844 36 141 42.1663 141 49.7727V68.1364C141 75.7428 134.844 81.9091 127.25 81.9091H118.083V123.227C118.083 130.834 111.927 137 104.333 137H67.6667C60.0728 137 53.9167 130.834 53.9167 123.227V81.9091H44.75C37.1561 81.9091 31 75.7428 31 68.1364V49.7727C31 42.1663 37.1561 36 44.75 36H127.25ZM131.833 68.1364C131.833 70.6718 129.781 72.7273 127.25 72.7273H118.083V63.5455H122.667C125.198 63.5455 127.25 61.4901 127.25 58.9545C127.25 56.4191 125.198 54.3636 122.667 54.3636H49.3333C46.8021 54.3636 44.75 56.4191 44.75 58.9545C44.75 61.4901 46.8021 63.5455 49.3333 63.5455H53.9167V72.7273H44.75C42.2187 72.7273 40.1667 70.6718 40.1667 68.1364V49.7727C40.1667 47.2373 42.2187 45.1818 44.75 45.1818H127.25C129.781 45.1818 131.833 47.2373 131.833 49.7727V68.1364ZM63.0833 63.5455V123.227C63.0833 125.763 65.1354 127.818 67.6667 127.818H104.333C106.865 127.818 108.917 125.763 108.917 123.227V63.5455H63.0833Z" fill="white"/>
<path d="M86.0048 73C83.5188 73 81.5036 75.0596 81.5036 77.6004V103.296L75.684 97.3489C73.9263 95.553 71.0763 95.553 69.3185 97.3489C67.5605 99.1459 67.5605 102.058 69.3185 103.855L82.8179 117.653C84.5748 119.448 87.4222 119.449 89.1804 117.656L102.682 103.886C104.439 102.09 104.439 99.1762 102.682 97.3802C100.924 95.5833 98.0743 95.5833 96.3161 97.3802L90.506 103.318V77.6004C90.506 75.0596 88.4908 73 86.0048 73Z" fill="white"/>
</svg>
